<!DOCTYPE svg PUBLIC "-//W3C//DTD SVG 1.1//EN" "http://www.w3.org/Graphics/SVG/1.1/DTD/svg11.dtd">
<!-- Uploaded to: SVG Repo, www.svgrepo.com, Transformed by: SVG Repo Mixer Tools -->
<svg width="800px" height="800px" viewBox="-102.4 -102.4 1228.80 1228.80" class="icon" version="1.1" xmlns="http://www.w3.org/2000/svg" fill="#000000">
<g id="SVGRepo_bgCarrier" stroke-width="0">
<path transform="translate(-102.4, -102.4), scale(38.4)" d="M16,30.15475378682216C19.287920179094506,30.669414066284272,22.730434901784573,29.18158530810705,25.0992465236315,26.844059734438215C27.35586885497633,24.6172417127004,27.400021870494797,21.221343567439806,28.169647109090306,18.145837131033392C29.024820323741775,14.728471647148524,31.681857110864442,11.01095202220052,29.807830210794414,8.028045510873202C27.930698187814215,5.0401965457599305,23.403511011889325,5.905431963309695,19.96956999158487,5.093696083175907C17.107332101497352,4.417102868812408,14.256063028753069,2.6136078080716816,11.525477988807022,3.7063518113946117C8.823774803551839,4.78753767861975,7.651981678820958,7.838456508304697,6.468151926784341,10.496784949054316C5.417498638241974,12.856061283758988,4.735443756152381,15.363831823398819,5.202942288695414,17.903812586769384C5.667543134056089,20.42804983611988,7.316499590307822,22.400608145431757,9.013528987255242,24.326151928993866C11.08115620417792,26.672196577030473,12.910479907183513,29.671149201624885,16,30.15475378682216" fill="#f2f2f2" strokewidth="0"/>
</g>
<g id="SVGRepo_tracerCarrier" stroke-linecap="round" stroke-linejoin="round"/>
<g id="SVGRepo_iconCarrier">
<path d="M854.7 828.1H169.9c-38.9 0-70.5-31.6-70.5-70.5v-499c0-38.9 31.6-70.5 70.5-70.5h684.7c38.9 0 70.5 31.6 70.5 70.5v499c0.1 38.9-31.5 70.5-70.4 70.5z" fill="#FFFFFF"/>
<path d="M885.2 258.1c0-16.5-13.5-30-30-30H169.4c-16.5 0-30 13.5-30 30v120.1h745.7V258.1z m-649.7 96.1c-28.2 0-51.2-23-51.2-51.2s23-51.2 51.2-51.2 51.2 23 51.2 51.2-22.9 51.2-51.2 51.2z m281.8-6.8H374.7c-24.1 0-43.7-19.6-43.7-43.7s19.6-43.7 43.7-43.7h142.6c24.1 0 43.7 19.6 43.7 43.7s-19.6 43.7-43.7 43.7z" fill="#E6E6E6"/>
<path d="M213.3 752.8h298.8c5.5 0 10-4.5 10-10s-4.5-10-10-10H213.3c-8.5 0-15.4-6.9-15.4-15.4V524.6c0-5.5-4.5-10-10-10s-10 4.5-10 10v192.9c0.1 19.4 15.9 35.3 35.4 35.3z" fill="#06F3FF"/>
<path d="M235.5 271.8c-17.2 0-31.2 14-31.2 31.2s14 31.2 31.2 31.2 31.2-14 31.2-31.2-14-31.2-31.2-31.2z" fill="#FFFFFF"/>
<path d="M235.5 251.8c-28.2 0-51.2 23-51.2 51.2s23 51.2 51.2 51.2 51.2-23 51.2-51.2-22.9-51.2-51.2-51.2z m0 82.4c-17.2 0-31.2-14-31.2-31.2s14-31.2 31.2-31.2 31.2 14 31.2 31.2-14 31.2-31.2 31.2z" fill="#64a4e8"/>
<path d="M517.3 280.1H374.7c-13 0-23.7 10.6-23.7 23.7s10.6 23.7 23.7 23.7h142.6c13 0 23.7-10.6 23.7-23.7s-10.7-23.7-23.7-23.7z" fill="#FFFFFF"/>
<path d="M517.3 260.1H374.7c-24.1 0-43.7 19.6-43.7 43.7s19.6 43.7 43.7 43.7h142.6c24.1 0 43.7-19.6 43.7-43.7s-19.6-43.7-43.7-43.7z m0 67.3H374.7c-13 0-23.7-10.6-23.7-23.7s10.6-23.7 23.7-23.7h142.6c13 0 23.7 10.6 23.7 23.7s-10.7 23.7-23.7 23.7z" fill="#64a4e8"/>
<path d="M855.2 188.1H169.4c-38.6 0-70 31.4-70 70v500c0 38.6 31.4 70 70 70h685.7c38.6 0 70-31.4 70-70v-500c0.1-38.6-31.3-70-69.9-70z m30 570c0 16.5-13.5 30-30 30H169.4c-16.5 0-30-13.5-30-30V398.2h745.7v359.9z m0-379.9H139.5V258.1c0-16.5 13.5-30 30-30h685.7c16.5 0 30 13.5 30 30v120.1z" fill="#64a4e8"/>
<path d="M459.9 624.6l-114.3-45.3 114.3-43.7v-46.5L296.1 560v39.5l163.8 71.2zM568.7 454.8h-34.4L475.1 702h33.8zM747.9 560.3l-164-70.9v45.8l114.4 44.5-114.4 45v46.2l164-71.4z" fill="#64a4e8"/>
</g>
</svg>